<svg xmlns="http://www.w3.org/2000/svg" width="18.448" height="17.869" viewBox="0 0 18.448 17.869">
  <path id="Icon_ionic-ios-search" data-name="Icon ionic-ios-search" d="M22.731,21.069,17.6,16.054a6.966,6.966,0,0,0,1.609-4.443,7.238,7.238,0,0,0-7.355-7.118A7.242,7.242,0,0,0,4.5,11.616a7.238,7.238,0,0,0,7.355,7.118,7.478,7.478,0,0,0,4.636-1.591l5.1,4.983a.808.808,0,0,0,1.115.028A.753.753,0,0,0,22.731,21.069ZM11.855,17.2a5.834,5.834,0,0,1-4.083-1.638,5.458,5.458,0,0,1,0-7.9,5.91,5.91,0,0,1,8.167,0,5.458,5.458,0,0,1,0,7.9A5.834,5.834,0,0,1,11.855,17.2Z" transform="translate(-4.5 -4.493)"/>
</svg>
