<svg xmlns="http://www.w3.org/2000/svg" xmlns:xlink="http://www.w3.org/1999/xlink" width="44.263" height="37.694" viewBox="0 0 44.263 37.694"><defs><linearGradient id="linear-gradient" x1=".5" x2=".5" y2="1" gradientUnits="objectBoundingBox"><stop offset="0" stop-color="#ffb047"/><stop offset="1" stop-color="#fb7293"/></linearGradient></defs><path id="Icon_metro-shop" fill="url(#linear-gradient)" d="M16.711,17,18.656,4.627H8.539l-4.227,10.6a3.575,3.575,0,0,0-.2,1.178c0,2.6,2.828,4.712,6.322,4.712,3.221,0,5.885-1.8,6.276-4.123Zm9.534,4.123c3.492,0,6.322-2.111,6.322-4.712,0-.1-.007-.193-.012-.285L31.3,4.627H21.186L19.932,16.112c0,.1-.01.193-.01.294,0,2.6,2.83,4.712,6.322,4.712Zm12.3,2.464V32.9H13.949V23.6a10.754,10.754,0,0,1-3.514.584,10.573,10.573,0,0,1-1.4-.115V39.023a3.38,3.38,0,0,0,3.438,3.3H40.015a3.384,3.384,0,0,0,3.443-3.3V24.068a11.017,11.017,0,0,1-1.4.115A10.619,10.619,0,0,1,38.54,23.583Zm9.64-8.354-4.232-10.6H33.833l1.943,12.349c.379,2.332,3.042,4.142,6.278,4.142,3.492,0,6.322-2.111,6.322-4.712a3.639,3.639,0,0,0-.2-1.178Z" data-name="Icon metro-shop" transform="translate(-4.113 -4.627)"/></svg>